<?xml  version="1.0" encoding="UTF-8"?>
<!DOCTYPE svg PUBLIC "-//W3C//DTD SVG 1.0//EN" "http://www.w3.org/TR/2001/REC-SVG-20010904/DTD/svg10.dtd" >
<svg xmlns="http://www.w3.org/2000/svg" >
<metadata>
<version>1.0</version>
<id><![CDATA[Proxima N W01SC Smbd It]]></id>
<vendor>Monotype Imaging Inc.</vendor>
<credits>
<name>Fonts.com WebFonts</name>
<URL>http://webfonts.fonts.com</URL>
<role>Home of the Web fonts</role>
</credits>
<license>
<URL>http://webfonts.fonts.com/Legal</URL>
</license>
<copyright><![CDATA[Copyright (c) Mark Simonson, 2005. All rights reserved.]]></copyright>
<trademark><![CDATA[Proxima Nova is a trademark of Mark Simonson.]]></trademark>
<licensee>
<name></name>
</licensee>
</metadata>
<defs >
<font horiz-adv-x="532" id="c825dd35-d314-46ec-ae6e-6e04369ae426">
<font-face font-family="" panose-1="2 0 5 6 3 0 0 2 0 4" ascent="769" descent="-231" units-per-em="1000" alphabetic="0">
</font-face>
<missing-glyph horiz-adv-x="0" />

<glyph unicode="&#xA;" />
<glyph unicode="&#xD;" horiz-adv-x="0" />
<glyph unicode=" " horiz-adv-x="258" />
<glyph unicode="!" horiz-adv-x="196" d="M128 189H44L107 550H223L128 189ZM50 -11Q24 -11 5 8T-14 54Q-14 85 9 107T63 129Q90 129 108 110T127 65Q127 33 105 11T50 -11Z"  />
<glyph unicode="&quot;" horiz-adv-x="380" d="M115 391Q118 447 121 493Q122 512 123 531T125 566T127 593T128 608Q130 638 149 657T197 677Q218 677 233 662T249 624Q249 616 247 609T242 597Q241 595 237 585T227 559T214 526T200 489Q182 445 162 391H115ZM282 391Q285 447 288 493Q289 512 290 531T292 566T294 593T295 608Q297 638 316 657T364 677Q385 677 400 662T416 624Q416 616 414 609T409 597Q408 595 404 585T394 559T381 526T367 489Q349 445 329 391H282Z"  />
<glyph unicode="#" horiz-adv-x="508" d="M492 340H409L339 214H424L391 154H306L221 0H148L233 154H151L66 0H-7L78 154H-2L31 214H113L182 340H100L131 399H215L300 550H373L287 399H369L454 550H527L442 399H523L492 340ZM255 340L185 214H266L335 340H255Z"  />
<glyph unicode="$" horiz-adv-x="511" d="M242 -12L228 -74H149L164 -5Q110 5 67 27T-6 85L63 165Q83 139 114 120T186 91L220 244Q193 254 167 266T119 295T85 336T72 393Q72 426 88 456T132 510T201 548T288 562H290L305 628H384L367 552Q414 541 451 520T513 470L444 395Q427 415 401 431T346 456L315 319Q343 309 370 297T418 266T453 223T467 163Q467 131 454 100T413 43T345 3T246 -12H242ZM352 159Q352 179 336 192T293 217L263 84Q288 85 305 92T332 109T347 133T352 159ZM187 398Q187 379 202 367T242 345L269 465Q232 462 210 443T187 398Z"  />
<glyph unicode="%" horiz-adv-x="604" d="M335 442Q335 412 324 384T293 335T245 300T184 287Q130 287 96 318T62 406Q62 436 73 464T104 514T151 549T211 562Q266 562 300 531T335 442ZM88 0H25L528 550H593L88 0ZM269 440Q269 468 254 487T209 506Q192 506 178 498T152 477T135 446T128 409Q128 381 143 363T188 344Q205 344 219 352T245 373T262 403T269 440ZM556 145Q556 115 545 87T513 37T466 2T405 -11Q350 -11 316 20T282 109Q282 139 293 167T324 217T371 252T432 265Q486 265 521 233T556 145ZM489 142Q489 170 474 189T429 208Q412 208 398 200T372 179T355 148T349 111Q349 83 364 65T408 47Q425 47 439 55T465 76T482 106T489 142Z"  />
<glyph unicode="&amp;" horiz-adv-x="563" d="M359 0Q352 8 346 17T332 35Q297 13 260 1T182 -11Q143 -11 110 -1T52 27T13 74T-1 138Q-1 178 12 207T49 258T101 295T163 321Q145 369 145 409Q145 442 158 470T194 518T247 550T313 562Q341 562 367 555T413 534T445 500T457 453Q457 416 442 391T402 347T345 315T280 291Q296 262 318 229Q331 208 342 191T364 156Q390 184 412 215T451 279L521 238Q495 198 467 162T406 94Q421 72 438 50T476 0H359ZM197 63Q242 63 289 93Q274 116 261 136T237 175Q223 197 212 217T190 258Q152 241 128 216T103 150Q103 112 128 88T197 63ZM239 409Q239 386 252 349Q277 357 298 365T336 385T361 411T371 445Q371 468 356 480T317 493Q284 493 262 470T239 409Z"  />
<glyph unicode="&apos;" horiz-adv-x="214" d="M115 391Q118 447 121 493Q122 512 123 531T125 566T127 593T128 608Q130 638 149 657T197 677Q218 677 233 662T249 624Q249 616 247 609T242 597Q241 595 237 585T227 559T214 526T200 489Q182 445 162 391H115Z"  />
<glyph unicode="(" horiz-adv-x="276" d="M97 -199Q62 -139 43 -62T24 100Q24 178 42 256T94 410T178 554T291 685L345 630Q246 507 190 366T134 69Q134 12 145 -46T172 -156L97 -199Z"  />
<glyph unicode=")" horiz-adv-x="277" d="M179 685Q214 625 232 548T251 386Q251 308 233 230T181 76T97 -68T-16 -199L-70 -144Q29 -20 85 121T141 418Q141 474 130 532T103 642L179 685Z"  />
<glyph unicode="*" horiz-adv-x="347" d="M173 376L204 491L97 442L81 492L191 532L103 592L141 636L221 567L241 677H297L266 562L373 612L390 561L281 522L367 461L329 417L249 486L230 376H173Z"  />
<glyph unicode="+" horiz-adv-x="502" d="M301 304L255 96H181L227 304H42L57 371H242L286 572H360L316 371H501L486 304H301Z"  />
<glyph unicode="&#x2c;" horiz-adv-x="245" d="M155 58Q155 31 145 4T116 -47T74 -92T21 -127L-18 -86Q9 -73 36 -51T74 -2H65Q43 -2 27 13T11 55Q11 70 17 83T35 107T59 123T88 129Q114 129 134 111T155 58Z"  />
<glyph unicode="-" horiz-adv-x="300" d="M20 197L39 287H279L260 197H20Z"  />
<glyph unicode="." horiz-adv-x="246" d="M75 -11Q49 -11 31 8T12 54Q12 85 34 107T88 129Q115 129 133 110T152 65Q152 33 130 11T75 -11Z"  />
<glyph unicode="/" horiz-adv-x="315" d="M-60 -20L333 687H415L21 -20H-60Z"  />
<glyph unicode="0" horiz-adv-x="617" d="M588 323Q588 269 569 210T513 101T421 20T293 -12Q171 -12 106 52T41 228Q41 282 60 341T116 449T208 530T336 562Q458 562 523 499T588 323ZM468 315Q468 385 434 421T335 458Q291 458 258 436T204 381T172 309T161 236Q161 165 195 129T294 92Q338 92 371 114T425 169T457 242T468 315Z"  />
<glyph unicode="1" horiz-adv-x="380" d="M138 0L226 399L92 285L40 356L274 550H376L255 0H138Z"  />
<glyph unicode="2" horiz-adv-x="581" d="M1 0L22 99Q218 163 322 230T427 369Q427 411 393 434T307 458Q205 458 126 389L75 471Q124 516 186 539T319 562Q368 562 410 551T484 519T533 466T551 395Q551 344 523 301T451 220T350 154T238 103H476L454 0H1Z"  />
<glyph unicode="3" horiz-adv-x="568" d="M236 -129Q191 -129 149 -120T70 -92T5 -49T-41 10L40 79Q54 54 76 35T124 2T178 -18T235 -25Q301 -25 335 7T370 88Q370 124 339 148T237 172Q216 172 194 172T164 170L188 276Q192 276 203 276T228 275T256 275T280 275Q309 275 335 280T380 297T411 327T423 370Q423 408 386 432T282 457Q239 457 197 443T117 398L73 477Q114 515 171 537T293 560Q348 560 394 549T473 516T524 462T543 389Q543 353 527 324T485 273T427 238T362 221Q413 209 449 174T486 77Q486 33 467 -4T415 -70T335 -113T236 -129Z"  />
<glyph unicode="4" horiz-adv-x="580" d="M418 39L383 -117H266L301 39H-18L3 133L369 550H530L440 142H529L507 39H418ZM390 445L120 142H323L390 445Z"  />
<glyph unicode="5" horiz-adv-x="600" d="M263 -129Q169 -129 104 -95T0 2L84 74Q111 26 157 1T266 -25Q297 -25 323 -15T369 13T398 55T409 106Q409 157 371 184T273 211Q233 211 203 201T143 168L68 200L144 550H581L559 447H239L198 263Q223 283 256 295T334 307Q374 307 410 295T473 259T515 200T531 119Q531 69 512 24T457 -55T373 -109T263 -129Z"  />
<glyph unicode="6" horiz-adv-x="601" d="M293 -12Q175 -12 111 54T46 241Q46 317 68 395T133 535T241 637T392 677Q464 677 517 652T605 583L531 501Q509 536 471 554T384 573Q342 573 309 556T251 510T208 445T180 373Q178 366 176 360T173 349Q186 363 206 377T249 402T299 419T354 426Q398 426 436 414T502 378T546 321T562 245Q562 193 541 147T484 65T398 9T293 -12ZM294 92Q325 92 352 103T398 133T429 177T440 230Q440 277 401 304T303 331Q261 331 226 314T161 267Q160 261 160 248T160 227Q160 166 196 129T294 92Z"  />
<glyph unicode="7" d="M37 -117L412 447H72L94 550H575L557 469L172 -117H37Z"  />
<glyph unicode="8" horiz-adv-x="596" d="M280 -12Q229 -12 182 -2T100 31T43 85T22 163Q22 232 72 283T214 356Q193 365 174 378T139 409T115 447T106 493Q106 541 128 576T187 633T268 666T358 677Q404 677 448 667T526 635T582 583T604 509Q604 474 591 445T554 394T497 356T424 333Q447 322 468 307T505 272T531 229T541 179Q541 135 520 100T462 40T379 2T280 -12ZM330 390Q396 395 437 420T478 488Q478 506 468 522T441 549T401 566T350 573Q325 573 302 567T262 548T234 519T223 480Q223 463 233 449T259 423T294 403T330 390ZM284 92Q310 92 335 99T380 118T412 149T424 191Q424 211 413 227T385 257T348 279T308 293Q274 291 245 283T193 260T159 227T146 185Q146 162 156 145T185 116T229 98T284 92Z"  />
<glyph unicode="9" horiz-adv-x="601" d="M320 561Q438 561 502 495T567 308Q567 232 545 155T480 14T372 -88T222 -128Q150 -128 97 -103T8 -33L82 48Q105 13 143 -5T229 -24Q271 -24 304 -6T362 40T405 105T433 177Q436 184 437 190T440 201Q427 187 408 173T365 148T314 131T259 124Q215 124 177 136T111 172T68 228T52 304Q52 356 73 403T130 485T215 540T320 561ZM319 457Q288 457 262 446T216 416T185 372T174 319Q174 272 212 246T311 219Q352 219 387 236T452 283Q453 289 453 302T454 323Q454 384 418 420T319 457Z"  />
<glyph unicode=":" horiz-adv-x="237" d="M75 -11Q49 -11 31 8T12 54Q12 85 34 107T88 129Q115 129 133 110T152 65Q152 33 130 11T75 -11ZM155 351Q128 351 110 370T91 415Q91 447 113 469T168 491Q194 491 212 472T231 426Q231 395 209 373T155 351Z"  />
<glyph unicode=";" horiz-adv-x="245" d="M155 58Q155 31 145 4T116 -47T74 -92T21 -127L-18 -86Q9 -73 36 -51T74 -2H65Q43 -2 27 13T11 55Q11 70 17 83T35 107T59 123T88 129Q114 129 134 111T155 58ZM155 351Q128 351 110 370T91 415Q91 447 113 469T168 491Q194 491 212 472T231 426Q231 395 209 373T155 351Z"  />
<glyph unicode="&lt;" horiz-adv-x="502" d="M40 297L57 373L547 580L528 496L128 331L455 167L438 90L40 297Z"  />
<glyph unicode="=" horiz-adv-x="502" d="M62 396L77 463H521L506 396H62ZM20 205L35 273H479L464 205H20Z"  />
<glyph unicode="&gt;" horiz-adv-x="502" d="M-6 90L13 174L415 338L86 503L103 580L501 373L484 297L-6 90Z"  />
<glyph unicode="?" horiz-adv-x="396" d="M420 436Q420 402 406 379T369 340T321 312T273 289T236 264T221 233Q221 218 236 204L150 180Q140 192 135 204T129 232Q129 261 142 280T175 313T218 338T261 359T294 383T308 417Q308 443 284 457T220 472Q182 472 151 458T91 418L52 488Q89 523 136 542T236 561Q277 561 311 552T369 527T406 487T420 436ZM147 -11Q120 -11 102 8T83 54Q83 85 105 107T160 129Q186 129 204 110T223 65Q223 33 201 11T147 -11Z"  />
<glyph unicode="@" horiz-adv-x="783" d="M372 -70Q304 -70 246 -46T146 20T79 120T55 244Q55 325 88 396T175 521T302 606T452 638Q524 638 582 614T681 547T744 448T767 327Q767 266 750 221T706 145T646 100T580 85Q536 85 513 108T486 162L485 169Q459 131 419 108T335 85Q299 85 271 97T222 132T191 184T180 251Q180 302 199 347T251 426T324 479T410 499Q458 499 489 478T537 427L548 484H642L588 228Q587 224 587 217T586 206Q586 182 598 170T627 158Q642 158 659 167T692 196T717 248T728 328Q728 388 708 438T652 524T564 581T449 601Q377 601 313 572T199 494T122 381T93 246Q93 187 114 136T173 47T263 -12T377 -34Q429 -34 474 -19T560 22L580 -7Q533 -37 481 -53T372 -70ZM369 161Q413 161 445 185T496 237L522 363Q518 373 511 383T493 403T466 417T432 423Q399 423 371 409T322 372T290 319T278 258Q278 215 302 188T369 161Z"  />
<glyph unicode="A" horiz-adv-x="673" d="M491 0L470 129H164L87 0H-53L357 667H503L618 0H491ZM410 550L220 232H460L410 550Z"  />
<glyph unicode="B" horiz-adv-x="649" d="M17 0L164 667H468Q509 667 541 655T597 621T632 572T645 510Q645 476 633 446T599 392T550 353T492 334Q514 328 532 315T562 283T581 243T588 199Q588 163 575 128T534 64T463 18T358 0H17ZM412 392Q442 392 462 400T495 423T513 455T519 491Q519 523 496 543T437 564H259L221 392H412ZM351 103Q380 103 402 112T439 135T462 169T470 209Q470 244 447 266T383 289H198L157 103H351Z"  />
<glyph unicode="C" horiz-adv-x="682" d="M371 -12Q303 -12 245 9T143 68T76 161T51 284Q51 373 82 446T167 570T289 650T434 678Q490 678 535 665T616 628T678 572T720 503L608 463Q584 520 536 547T428 574Q378 574 332 554T251 496T195 406T174 291Q174 248 188 212T228 149T292 107T377 92Q422 92 466 112T544 169L633 106Q605 73 573 51T506 14T437 -6T371 -12Z"  />
<glyph unicode="D" horiz-adv-x="710" d="M17 0L164 667H407Q463 667 514 646T605 588T667 498T691 382Q691 315 667 247T592 124T459 35T264 0H17ZM157 103H285Q351 103 404 125T493 184T550 270T570 374Q570 415 556 449T518 509T460 549T386 564H259L157 103Z"  />
<glyph unicode="E" horiz-adv-x="577" d="M17 0L164 667H621L599 564H259L221 392H554L531 289H198L157 103H497L474 0H17Z"  />
<glyph unicode="F" horiz-adv-x="563" d="M17 0L164 667H621L599 564H259L221 392H554L531 289H198L134 0H17Z"  />
<glyph unicode="G" horiz-adv-x="717" d="M371 -12Q302 -12 244 9T143 69T76 162T51 284Q51 369 81 441T164 566T289 648T444 678Q495 678 537 666T613 632T672 582T713 521L607 475Q586 520 537 547T428 574Q377 574 331 553T250 494T195 404T174 291Q174 248 188 212T228 149T292 107T377 92Q426 92 463 109T529 151L552 256H352L375 359H691L635 106Q584 50 517 19T371 -12Z"  />
<glyph unicode="H" horiz-adv-x="723" d="M481 0L545 292H198L134 0H17L164 667H281L221 395H568L628 667H745L598 0H481Z"  />
<glyph unicode="I" horiz-adv-x="259" d="M17 0L164 667H281L134 0H17Z"  />
<glyph unicode="J" horiz-adv-x="482" d="M162 -12Q106 -12 55 7T-26 67L40 154Q57 126 87 109T155 92Q209 92 242 125T287 213L387 667H504L403 212Q377 97 318 43T162 -12Z"  />
<glyph unicode="K" horiz-adv-x="621" d="M423 0L259 286L181 213L134 0H17L164 667H281L213 359L536 667H687L347 353L561 0H423Z"  />
<glyph unicode="L" horiz-adv-x="506" d="M9 0L156 667H273L149 103H443L420 0H9Z"  />
<glyph unicode="M" horiz-adv-x="835" d="M593 0L707 515L389 0H339L248 515L134 0H17L164 667H325L405 209L688 667H857L710 0H593Z"  />
<glyph unicode="N" horiz-adv-x="720" d="M482 0L241 483L134 0H17L164 667H284L521 199L625 667H742L595 0H482Z"  />
<glyph unicode="O" horiz-adv-x="765" d="M371 -12Q304 -12 246 8T144 67T76 160T51 284Q51 367 80 439T162 564T283 647T434 678Q501 678 559 658T660 600T728 507T753 383Q753 300 724 228T643 103T522 19T371 -12ZM377 92Q429 92 475 113T555 173T610 263T630 375Q630 422 615 459T572 521T507 560T426 574Q374 574 328 553T248 493T194 403T174 291Q174 244 189 207T232 145T297 106T377 92Z"  />
<glyph unicode="P" horiz-adv-x="609" d="M17 0L164 667H450Q489 667 522 653T579 614T617 557T631 488Q631 450 618 408T573 331T490 273T364 250H189L134 0H17ZM371 353Q403 353 428 362T472 389T499 428T509 476Q509 514 483 539T414 564H259L212 353H371Z"  />
<glyph unicode="Q" horiz-adv-x="765" d="M371 -12Q304 -12 246 8T144 67T76 160T51 284Q51 367 80 439T162 564T283 647T434 678Q501 678 559 658T660 600T728 507T753 383Q753 284 712 202T602 66L639 11L546 -37L511 15Q479 2 444 -5T371 -12ZM377 92Q416 92 452 104L385 206L479 253L541 158Q582 196 606 252T630 375Q630 422 615 459T572 521T507 560T426 574Q374 574 328 553T248 493T194 403T174 291Q174 244 189 207T232 145T297 106T377 92Z"  />
<glyph unicode="R" horiz-adv-x="629" d="M404 0L311 249H189L134 0H17L164 667H432Q471 667 506 655T570 619T614 562T631 485Q631 440 616 401T574 331T510 282T429 257L534 0H404ZM372 352Q438 352 473 387T509 474Q509 494 501 510T480 539T449 557T412 564H259L212 352H371H372Z"  />
<glyph unicode="S" horiz-adv-x="594" d="M295 -12Q248 -12 204 -3T123 22T56 61T7 111L81 196Q116 148 175 120T304 92Q336 92 359 101T396 124T418 155T425 188Q425 215 401 233T340 267T261 298T182 336T122 390T97 470Q97 510 114 547T165 614T244 660T348 678Q426 678 493 650T603 571L528 487Q492 532 438 553T331 575Q307 575 287 568T253 550T230 523T221 490Q221 465 245 448T306 415T385 384T464 346T524 291T549 210Q549 166 532 126T483 56T403 7T295 -12Z"  />
<glyph unicode="T" horiz-adv-x="577" d="M176 0L301 564H99L121 667H642L620 564H418L293 0H176Z"  />
<glyph unicode="U" horiz-adv-x="720" d="M348 -12Q280 -12 229 4T142 51T88 123T70 216Q70 228 71 242T75 264L164 667H283L194 266Q193 261 192 251T190 230Q190 201 200 176T231 132T280 102T348 91Q431 91 474 138T535 266L623 667H742L653 264Q639 203 617 152T558 65T470 8T348 -12Z"  />
<glyph unicode="V" horiz-adv-x="673" d="M210 0L95 667H222L305 128L626 667H765L356 0H210Z"  />
<glyph unicode="W" horiz-adv-x="903" d="M527 0L506 493L268 0H143L100 667H227L244 154L495 667H588L613 154L856 667H990L652 0H527Z"  />
<glyph unicode="X" horiz-adv-x="661" d="M471 0L336 257L97 0H-51L278 350L112 667H244L368 427L587 667H736L427 336L604 0H471Z"  />
<glyph unicode="Y" horiz-adv-x="637" d="M207 0L268 277L95 667H222L342 382L588 667H729L385 277L324 0H207Z"  />
<glyph unicode="Z" horiz-adv-x="589" d="M-10 0L11 95L449 564H115L138 667H631L610 573L172 103H513L491 0H-10Z"  />
<glyph unicode="[" horiz-adv-x="265" d="M-53 -190L140 678H343L327 606H202L41 -118H167L150 -190H-53Z"  />
<glyph unicode="\" horiz-adv-x="315" d="M98 687H176L256 -20H178L98 687Z"  />
<glyph unicode="]" horiz-adv-x="265" d="M-79 -190L-63 -118H63L223 606H98L114 678H317L124 -190H-79Z"  />
<glyph unicode="^" horiz-adv-x="437" d="M361 333L300 594L123 333H38L274 667H351L437 333H361Z"  />
<glyph unicode="_" horiz-adv-x="564" d="M-82 -112L-65 -40H504L488 -112H-82Z"  />
<glyph unicode="`" horiz-adv-x="240" d="M234 556L101 700H201L309 556H234Z"  />
<glyph unicode="a" horiz-adv-x="586" d="M426 550L532 0H412L393 104H135L71 0H-54L295 550H426ZM338 439L188 199H381L338 439Z"  />
<glyph unicode="b" horiz-adv-x="573" d="M14 0L135 550H395Q468 550 514 518T561 425Q561 400 553 376T528 331T489 297T437 279Q474 266 495 235T516 169Q516 133 503 103T466 49T406 13T324 0H14ZM318 95Q356 95 380 116T405 172Q405 198 387 215T336 233H175L145 95H318ZM366 328Q404 328 424 351T444 402Q444 429 424 442T373 455H224L195 328H356H366Z"  />
<glyph unicode="c" horiz-adv-x="584" d="M315 -12Q253 -12 202 6T115 58T59 137T39 239Q39 305 64 363T134 466T239 536T367 562Q450 562 510 523T597 421L499 384Q482 421 445 443T363 466Q321 466 283 449T216 402T169 332T151 246Q151 209 163 179T198 128T252 96T320 84Q363 84 399 102T464 155L545 104Q505 54 448 21T315 -12Z"  />
<glyph unicode="d" horiz-adv-x="622" d="M14 0L135 550H325Q383 550 432 533T518 485T576 411T597 314Q597 261 578 205T516 104T407 29T245 0H14ZM266 95Q321 95 362 114T430 163T470 230T484 306Q484 373 439 414T312 455H224L145 95H266Z"  />
<glyph unicode="e" horiz-adv-x="515" d="M14 0L135 550H536L515 455H224L196 328H482L461 233H175L144 95H436L415 0H14Z"  />
<glyph unicode="f" horiz-adv-x="501" d="M14 0L135 550H536L516 455H224L196 328H482L461 233H175L124 0H14Z"  />
<glyph unicode="g" horiz-adv-x="620" d="M318 -12Q259 -12 208 5T120 54T60 132T38 235Q38 299 62 358T131 463T235 535T368 562Q407 562 442 553T506 527T559 487T597 437L500 392Q483 422 446 444T361 466Q315 466 277 448T211 399T168 328T152 244Q152 208 165 179T201 128T256 96T323 84Q362 84 388 93T432 114L454 211H306L326 300H582L530 60Q489 30 437 9T318 -12Z"  />
<glyph unicode="h" horiz-adv-x="644" d="M414 0L465 235H175L124 0H14L135 550H245L196 330H486L535 550H643L522 0H414Z"  />
<glyph unicode="i" horiz-adv-x="246" d="M14 0L135 550H245L124 0H14Z"  />
<glyph unicode="j" horiz-adv-x="428" d="M134 -12Q78 -12 35 7T-34 61L31 136Q45 112 69 98T125 84Q174 84 200 110T237 182L318 550H427L344 173Q322 74 271 31T134 -12Z"  />
<glyph unicode="k" horiz-adv-x="553" d="M361 0L220 228L162 176L124 0H14L135 550H245L190 302L460 550H596L304 291L492 0H361Z"  />
<glyph unicode="l" horiz-adv-x="464" d="M14 0L135 550H245L144 95H397L376 0H14Z"  />
<glyph unicode="m" horiz-adv-x="741" d="M510 0L599 403L341 0H292L213 403L124 0H14L135 550H281L354 175L592 550H740L619 0H510Z"  />
<glyph unicode="n" horiz-adv-x="642" d="M409 0L210 393L123 0H14L135 550H252L447 168L532 550H641L520 0H409Z"  />
<glyph unicode="o" horiz-adv-x="658" d="M312 -12Q250 -12 200 6T114 58T59 138T39 240Q39 304 63 362T130 465T231 535T359 562Q421 562 471 544T557 492T612 412T632 310Q632 246 608 188T541 85T440 15T312 -12ZM314 84Q360 84 398 102T463 151T505 221T520 303Q520 337 509 367T477 419T426 453T356 466Q310 466 273 448T208 399T166 329T151 247Q151 213 162 183T194 131T245 97T314 84Z"  />
<glyph unicode="p" horiz-adv-x="541" d="M14 0L135 550H365Q451 550 500 508T549 398Q549 359 535 324T494 261T429 217T341 200H168L124 0H14ZM338 295Q383 295 409 323T436 390Q436 420 414 437T354 455H224L189 295H330H338Z"  />
<glyph unicode="q" horiz-adv-x="658" d="M312 -12Q250 -12 200 6T114 58T59 138T39 240Q39 304 63 362T130 465T231 535T359 562Q421 562 471 544T557 492T612 412T632 310Q632 235 600 169T510 57L537 17L460 -32L431 11Q404 0 374 -6T312 -12ZM314 84Q331 84 347 86T377 94L326 173L402 222L454 142Q486 173 503 215T520 303Q520 337 509 367T477 419T426 453T356 466Q310 466 273 448T208 399T166 329T151 247Q151 213 162 183T194 131T245 97T314 84Z"  />
<glyph unicode="r" horiz-adv-x="562" d="M345 0L265 200H168L124 0H14L135 550H367Q410 550 444 539T502 507T538 460T551 399Q551 363 540 330T506 272T450 229T374 207L468 0H345ZM335 295Q384 295 410 323T437 389Q437 418 415 436T356 455H224L189 295H327H335Z"  />
<glyph unicode="s" horiz-adv-x="511" d="M246 -12Q167 -12 101 12T-6 85L63 165Q91 129 141 107T252 84Q280 84 299 90T330 107T347 131T352 159Q352 181 332 195T280 222T212 247T145 278T93 324T72 393Q72 426 88 456T132 510T201 548T288 562Q360 562 419 536T513 470L444 395Q432 410 414 423T373 445T328 460T282 466Q240 466 214 447T187 398Q187 377 207 364T259 339T327 315T394 283T446 236T467 163Q467 131 454 100T413 43T345 3T246 -12Z"  />
<glyph unicode="t" horiz-adv-x="480" d="M132 0L232 455H69L90 550H524L503 455H341L241 0H132Z"  />
<glyph unicode="u" horiz-adv-x="636" d="M306 -12Q245 -12 198 1T120 39T72 97T56 172Q56 191 61 216L135 550H245L173 225Q170 208 170 193Q170 139 206 112T304 84Q367 84 403 120T453 225L525 550H635L561 216Q549 162 530 120T480 48T407 4T306 -12Z"  />
<glyph unicode="v" horiz-adv-x="586" d="M174 0L67 550H189L264 119L530 550H653L305 0H174Z"  />
<glyph unicode="w" horiz-adv-x="783" d="M446 0L423 390L230 0H115L71 550H192L210 145L414 550H501L527 145L724 550H846L560 0H446Z"  />
<glyph unicode="x" horiz-adv-x="577" d="M395 0L282 209L79 0H-53L226 282L82 550H209L310 355L498 550H629L368 283L522 0H395Z"  />
<glyph unicode="y" horiz-adv-x="557" d="M172 0L222 229L67 550H190L296 322L499 550H624L330 229L280 0H172Z"  />
<glyph unicode="z" horiz-adv-x="521" d="M-17 0L1 80L371 454H84L105 550H544L526 470L156 96H450L429 0H-17Z"  />
<glyph unicode="{" horiz-adv-x="277" d="M116 -190Q91 -190 68 -182T28 -157T0 -120T-11 -71Q-11 -56 -8 -42L34 145Q35 150 35 154T36 163Q36 185 26 199T-3 213L11 275Q40 275 56 295T78 343L120 529Q137 606 183 642T295 678H356L340 606H279Q214 606 197 530L152 325Q144 293 129 269T87 236Q103 228 109 214T116 181Q116 173 115 165T112 147L70 -41Q69 -46 69 -51T68 -61Q68 -87 84 -102T125 -118H179L163 -190H116Z"  />
<glyph unicode="|" horiz-adv-x="214" d="M91 -20V687H163V-20H91Z"  />
<glyph unicode="}" horiz-adv-x="277" d="M160 678Q185 678 208 670T248 645T276 608T287 559Q287 552 286 544T283 530L242 343Q241 338 241 334T240 326Q240 304 250 290T279 275L265 213Q236 213 220 193T198 145L156 -41Q139 -118 93 -154T-19 -190H-80L-64 -118H-3Q62 -118 79 -42L124 163Q132 195 147 219T189 252Q173 260 167 275T160 307Q160 315 161 323T164 341L206 529Q207 534 207 539T208 549Q208 575 192 590T151 606H97L113 678H160Z"  />
<glyph unicode="~" horiz-adv-x="507" d="M572 659Q562 614 547 571T510 493T458 438T388 417Q352 417 333 430T305 464T292 508T284 552T272 585T246 599Q229 599 214 585T184 546T158 488T138 416L66 425Q76 471 91 514T129 591T181 645T251 666Q286 666 305 653T334 619T347 575T355 531T366 497T392 483Q408 483 424 498T454 538T481 596T501 667L572 659Z"  />
<glyph unicode="&#xA0;" horiz-adv-x="258" />
<glyph unicode="&#xA1;" horiz-adv-x="196" d="M68 361H152L89 0H-27L68 361ZM146 561Q172 561 191 542T210 496Q210 465 187 443T133 421Q106 421 88 440T69 485Q69 517 91 539T146 561Z"  />
<glyph unicode="&#xA2;" horiz-adv-x="584" d="M312 -12L296 -87H217L235 -3Q190 7 154 29T92 82T53 153T39 239Q39 304 64 362T132 464T235 534T361 562L375 622H454L438 553Q495 539 536 504T597 421L499 384Q487 409 466 427T417 456L334 84Q372 87 405 105T464 155L545 104Q505 54 448 21T315 -12H312ZM151 246Q151 189 180 150T257 94L340 464Q302 459 268 441T207 393T166 327T151 246Z"  />
<glyph unicode="&#xA3;" horiz-adv-x="439" d="M24 284H86Q78 304 72 326T65 374Q65 414 82 448T127 508T193 547T271 561Q303 561 333 554T387 533T430 499T457 453L367 418Q358 452 332 467T277 483Q234 483 203 452T172 368Q172 343 179 324T194 284H322L309 224H211Q212 220 212 214Q212 198 205 180T188 146T166 117T143 98Q152 101 164 101Q183 101 199 97T229 89T258 80T287 76Q310 76 326 84T356 106L381 29Q364 11 342 0T279 -11Q250 -11 229 -6T187 6T147 17T102 23Q63 23 14 -8L-7 62Q45 82 79 117T113 194Q113 202 112 209T109 224H10L24 284Z"  />
<glyph unicode="&#xA4;" horiz-adv-x="506" d="M253 222Q310 222 341 262T372 365Q372 395 364 421T341 467T304 498T253 509Q224 509 202 498T165 468T141 422T133 365Q133 334 141 308T164 263T202 233T253 222ZM19 168L88 239Q50 294 50 365Q50 436 88 489L19 560L64 603L131 534Q155 552 185 563T253 574Q289 574 320 563T375 534L442 603L487 560L418 489Q455 435 455 365Q455 330 445 298T417 240L487 168L442 125L374 194Q325 157 253 157Q181 157 132 194L64 125L19 168Z"  />
<glyph unicode="&#xA5;" horiz-adv-x="557" d="M172 0L196 110H-6L8 169H209L222 228H21L34 287H194L67 550H190L296 322L499 550H624L383 287H541L527 228H330L317 169H514L501 110H304L280 0H172Z"  />
<glyph unicode="&#xA6;" horiz-adv-x="214" d="M91 -20V296H163V-20H91ZM91 371V687H163V371H91Z"  />
<glyph unicode="&#xA7;" horiz-adv-x="477" d="M454 328Q454 280 423 241T334 183Q370 163 384 138T399 82Q399 49 385 19T345 -33T283 -68T202 -81Q128 -81 70 -60T-27 2L34 65Q60 32 105 13T201 -7Q243 -7 268 15T294 66Q294 88 276 102T231 128T171 150T112 177T66 217T48 278Q48 327 82 365T183 418Q147 434 125 460T103 525Q103 556 116 584T155 632T215 665T293 677Q365 677 416 658T499 603L442 546Q418 575 378 589T298 603Q255 603 231 584T206 537Q206 515 224 502T270 477T330 456T389 429T435 389T454 328ZM345 305Q345 337 322 354T266 382Q207 374 181 351T154 298Q154 266 182 249T256 217Q305 230 325 255T345 305Z"  />
<glyph unicode="&#xA8;" horiz-adv-x="285" d="M387 615Q387 602 382 590T367 569T346 555T321 550Q298 550 284 564T269 602Q269 615 274 626T289 647T310 661T335 667Q357 667 372 652T387 615ZM178 615Q178 602 173 590T158 569T137 555T112 550Q89 550 75 564T60 602Q60 615 65 626T80 647T101 661T126 667Q148 667 163 652T178 615Z"  />
<glyph unicode="&#xA9;" horiz-adv-x="778" d="M754 334Q754 263 727 200T653 90T543 16T408 -11Q337 -11 274 16T165 90T91 200T64 334Q64 406 91 468T164 578T274 652T408 679Q480 679 543 652T653 578T727 469T754 334ZM720 334Q720 398 696 455T629 554T529 620T408 645Q344 645 288 621T189 554T123 455T98 334Q98 270 122 214T189 115T287 48T408 23Q472 23 529 47T628 114T695 213T720 334ZM529 176Q502 153 467 138T392 122Q347 122 312 136T252 175T214 234T200 307Q200 358 219 402T272 478T347 529T434 547Q486 547 526 527T592 466L558 442Q540 475 508 492T433 510Q398 510 364 495T303 453T259 389T242 308Q242 278 252 251T282 204T329 171T392 159Q425 159 455 173T506 207L529 176Z"  />
<glyph unicode="&#xAA;" horiz-adv-x="412" d="M269 587Q246 587 227 577T193 549T170 509T162 460Q162 420 183 400T238 380Q263 380 283 391T319 420L348 551Q337 568 315 577T269 587ZM445 640L376 326H298L307 368Q285 342 261 330T207 318Q182 318 160 326T120 351T92 393T82 452Q82 492 95 527T131 590T184 632T251 648Q286 648 314 636T359 599L368 640H445Z"  />
<glyph unicode="&#xAB;" horiz-adv-x="490" d="M149 63L29 243L229 420H333L129 238L245 63H149ZM319 63L199 243L399 420H503L299 238L415 63H319Z"  />
<glyph unicode="&#xAC;" horiz-adv-x="511" d="M464 205H394L436 396H62L77 463H521L464 205Z"  />
<glyph unicode="&#xAD;" horiz-adv-x="300" d="M20 197L39 287H279L260 197H20Z"  />
<glyph unicode="&#xAE;" horiz-adv-x="494" d="M508 465Q508 421 492 383T446 315T378 270T295 253Q251 253 213 269T146 315T101 382T84 465Q84 509 100 548T146 615T213 660T296 677Q340 677 379 661T446 616T491 548T508 465ZM478 465Q478 503 464 536T425 594T367 633T295 647Q257 647 225 633T168 595T129 537T115 465Q115 428 129 395T167 338T224 299T295 284Q333 284 366 298T424 337T463 395T478 465ZM329 343L287 439H242L221 343H188L241 586H334Q364 586 384 569T404 522Q404 504 397 489T379 463T353 446T324 440L368 343H329ZM369 519Q369 536 358 546T327 557H268L249 469H315Q339 469 354 484T369 519Z"  />
<glyph unicode="&#xAF;" horiz-adv-x="363" d="M77 591L91 653H453L439 591H77Z"  />
<glyph unicode="&#xB0;" horiz-adv-x="302" d="M348 547Q348 520 338 497T310 456T269 428T218 418Q191 418 168 428T127 455T99 496T89 547Q89 574 99 597T126 639T167 667T218 677Q245 677 268 667T309 639T337 598T348 547ZM288 547Q288 576 268 596T218 617Q189 617 169 597T149 547Q149 518 168 499T217 479Q246 479 267 498T288 547Z"  />
<glyph unicode="&#xB1;" horiz-adv-x="502" d="M306 325L260 118H186L232 325H47L62 393H247L291 593H365L321 393H506L491 325H306ZM-25 0L-11 68H434L419 0H-25Z"  />
<glyph unicode="&#xB2;" horiz-adv-x="394" d="M87 421L101 485Q172 527 223 558T306 615T354 663T370 708Q370 735 348 748T295 762Q261 762 232 750T183 718L149 771Q178 798 217 812T298 827Q329 827 357 820T406 799T440 763T453 714Q453 684 436 656T388 599T315 544T220 486H406L392 421H87Z"  />
<glyph unicode="&#xB3;" horiz-adv-x="394" d="M419 534Q419 512 409 491T380 452T332 425T266 414Q208 414 163 433T95 487L146 536Q166 507 197 493T263 479Q301 479 320 498T339 544Q339 567 314 580T245 594Q237 594 228 594T213 593L227 657Q237 656 257 656T290 656Q328 656 349 670T371 711Q371 736 345 749T286 762Q226 762 180 723L152 774Q178 797 215 812T293 827Q362 827 407 801T453 723Q453 682 424 654T342 621Q373 613 396 592T419 534Z"  />
<glyph unicode="&#xB4;" horiz-adv-x="240" d="M144 556H67L239 700H341L144 556Z"  />
<glyph unicode="&#xB5;" horiz-adv-x="567" d="M-27 -184L121 483H226L155 161Q150 116 171 98T234 80Q274 80 311 100T372 144L447 483H552L445 0H340L354 64Q322 35 273 12T167 -12Q139 -12 117 -6L78 -184H-27Z"  />
<glyph unicode="&#xB6;" horiz-adv-x="449" d="M260 -100L419 612H336L177 -100H122L216 323Q188 323 163 334T120 367T90 416T79 479Q79 514 93 548T134 608T195 651T273 667H485L315 -100H260Z"  />
<glyph unicode="&#xB7;" horiz-adv-x="246" d="M116 175Q90 175 72 194T53 240Q53 271 75 293T129 315Q156 315 174 296T193 251Q193 219 171 197T116 175Z"  />
<glyph unicode="&#xB8;" horiz-adv-x="214" d="M26 -194Q-12 -194 -42 -183T-89 -154L-58 -111Q-41 -128 -19 -137T27 -146Q53 -146 67 -135T81 -106Q81 -95 73 -88T49 -80Q29 -80 17 -95L-19 -72L30 11H85L46 -53Q60 -42 78 -42Q103 -42 119 -58T136 -103Q136 -145 105 -169T26 -194Z"  />
<glyph unicode="&#xB9;" horiz-adv-x="264" d="M162 421L226 714L147 648L110 698L261 821H331L243 421H162Z"  />
<glyph unicode="&#xBA;" horiz-adv-x="405" d="M241 318Q168 318 126 358T84 463Q84 502 99 536T139 594T198 633T270 648Q343 648 385 608T427 504Q427 465 412 431T372 372T312 333T241 318ZM242 381Q267 381 287 392T320 420T341 460T348 505Q348 541 327 562T269 584Q243 584 224 574T191 546T171 506T164 461Q164 425 185 403T242 381Z"  />
<glyph unicode="&#xBB;" horiz-adv-x="490" d="M173 420L293 240L93 63H-11L193 245L77 420H173ZM343 420L463 240L263 63H159L363 245L247 420H343Z"  />
<glyph unicode="&#xBC;" horiz-adv-x="806" d="M138 0H71L645 667H712L138 0ZM689 92L669 0H589L609 92H412L425 149L645 400H757L703 156H757L743 92H689ZM661 327L507 156H623L661 327ZM128 267L192 560L113 494L76 544L227 667H297L209 267H128Z"  />
<glyph unicode="&#xBD;" horiz-adv-x="841" d="M138 0H71L645 667H712L138 0ZM442 0L456 64Q527 106 578 137T661 194T709 242T725 287Q725 314 703 327T650 341Q616 341 587 329T538 297L504 350Q533 377 572 391T653 406Q684 406 712 399T761 378T795 342T808 293Q808 263 791 235T743 178T670 123T575 65H761L747 0H442ZM128 267L192 560L113 494L76 544L227 667H297L209 267H128Z"  />
<glyph unicode="&#xBE;" horiz-adv-x="903" d="M235 0H168L742 667H809L235 0ZM785 92L765 0H685L705 92H508L521 149L741 400H853L799 156H853L839 92H785ZM757 327L603 156H719L757 327ZM385 380Q385 358 375 337T346 298T298 271T232 260Q174 260 129 279T61 333L112 382Q132 353 163 339T229 325Q267 325 286 344T305 390Q305 413 280 426T211 440Q203 440 194 440T179 439L193 503Q203 502 223 502T256 502Q294 502 315 516T337 557Q337 582 311 595T252 608Q192 608 146 569L118 620Q144 643 181 658T259 673Q328 673 373 647T419 569Q419 528 390 500T308 467Q339 459 362 438T385 380Z"  />
<glyph unicode="&#xBF;" horiz-adv-x="396" d="M-24 114Q-24 148 -10 171T27 210T75 238T123 261T160 285T175 317Q175 332 160 346L246 370Q256 358 261 346T267 318Q267 289 254 270T221 237T178 212T135 191T102 167T88 133Q88 107 112 93T176 78Q214 78 245 92T305 132L344 62Q307 27 260 8T160 -11Q119 -11 85 -2T27 23T-10 63T-24 114ZM249 561Q276 561 294 542T313 496Q313 465 291 443T236 421Q210 421 192 440T173 485Q173 517 195 539T249 561Z"  />
<glyph unicode="&#xC0;" horiz-adv-x="673" d="M445 728L312 872H412L520 728H445ZM491 0L470 129H164L87 0H-53L357 667H503L618 0H491ZM410 550L220 232H460L410 550Z"  />
<glyph unicode="&#xC1;" horiz-adv-x="673" d="M445 728H368L540 872H642L445 728ZM491 0L470 129H164L87 0H-53L357 667H503L618 0H491ZM410 550L220 232H460L410 550Z"  />
<glyph unicode="&#xC2;" horiz-adv-x="673" d="M524 728L467 825L372 728H303L428 872H524L588 728H524ZM491 0L470 129H164L87 0H-53L357 667H503L618 0H491ZM410 550L220 232H460L410 550Z"  />
<glyph unicode="&#xC3;" horiz-adv-x="673" d="M515 726Q488 726 473 738T447 765T425 792T396 804Q379 804 366 787T344 732H285Q298 794 325 830T403 866Q430 866 445 854T471 827T494 800T523 788Q540 788 553 805T576 860H634Q621 798 594 762T515 726ZM491 0L470 129H164L87 0H-53L357 667H503L618 0H491ZM410 550L220 232H460L410 550Z"  />
<glyph unicode="&#xC4;" horiz-adv-x="673" d="M620 787Q620 774 615 762T600 741T579 727T554 722Q531 722 517 736T502 774Q502 787 507 798T522 819T543 833T568 839Q590 839 605 824T620 787ZM411 787Q411 774 406 762T391 741T370 727T345 722Q322 722 308 736T293 774Q293 787 298 798T313 819T334 833T359 839Q381 839 396 824T411 787ZM491 0L470 129H164L87 0H-53L357 667H503L618 0H491ZM410 550L220 232H460L410 550Z"  />
<glyph unicode="&#xC5;" horiz-adv-x="673" d="M448 692Q406 692 381 717T355 785Q355 808 364 828T388 864T424 888T467 897Q509 897 534 872T560 804Q560 781 551 761T527 726T492 701T448 692ZM452 743Q475 743 492 759T509 799Q509 820 497 833T463 846Q440 846 423 830T406 790Q406 770 419 757T452 743ZM491 0L470 129H164L87 0H-53L357 667H503L618 0H491ZM410 550L220 232H460L410 550Z"  />
<glyph unicode="&#xC6;" horiz-adv-x="960" d="M401 0L429 129H187L82 0H-56L501 667H1005L983 564H643L605 392H938L915 289H582L541 103H881L858 0H401ZM521 543L265 232H452L521 543Z"  />
<glyph unicode="&#xC7;" horiz-adv-x="682" d="M371 -12Q366 -12 361 -12T351 -11L326 -53Q340 -42 358 -42Q383 -42 399 -58T416 -103Q416 -145 385 -169T306 -194Q268 -194 238 -183T191 -154L222 -111Q239 -128 261 -137T307 -146Q333 -146 347 -135T361 -106Q361 -95 353 -88T329 -80Q309 -80 297 -95L261 -72L300 -5Q245 5 200 29T121 91T70 176T51 284Q51 373 82 446T167 570T289 650T434 678Q490 678 535 665T616 628T678 572T720 503L608 463Q584 520 536 547T428 574Q378 574 332 554T251 496T195 406T174 291Q174 248 188 212T228 149T292 107T377 92Q422 92 466 112T544 169L633 106Q605 73 573 51T506 14T437 -6T371 -12Z"  />
<glyph unicode="&#xC8;" horiz-adv-x="577" d="M407 728L274 872H374L482 728H407ZM17 0L164 667H621L599 564H259L221 392H554L531 289H198L157 103H497L474 0H17Z"  />
<glyph unicode="&#xC9;" horiz-adv-x="577" d="M407 728H330L502 872H604L407 728ZM17 0L164 667H621L599 564H259L221 392H554L531 289H198L157 103H497L474 0H17Z"  />
<glyph unicode="&#xCA;" horiz-adv-x="577" d="M485 728L428 825L333 728H264L389 872H485L549 728H485ZM17 0L164 667H621L599 564H259L221 392H554L531 289H198L157 103H497L474 0H17Z"  />
<glyph unicode="&#xCB;" horiz-adv-x="577" d="M583 787Q583 774 578 762T563 741T542 727T517 722Q494 722 480 736T465 774Q465 787 470 798T485 819T506 833T531 839Q553 839 568 824T583 787ZM374 787Q374 774 369 762T354 741T333 727T308 722Q285 722 271 736T256 774Q256 787 261 798T276 819T297 833T322 839Q344 839 359 824T374 787ZM17 0L164 667H621L599 564H259L221 392H554L531 289H198L157 103H497L474 0H17Z"  />
<glyph unicode="&#xCC;" horiz-adv-x="259" d="M236 728L103 872H203L311 728H236ZM17 0L164 667H281L134 0H17Z"  />
<glyph unicode="&#xCD;" horiz-adv-x="259" d="M239 728H162L334 872H436L239 728ZM17 0L164 667H281L134 0H17Z"  />
<glyph unicode="&#xCE;" horiz-adv-x="259" d="M315 728L258 825L163 728H94L219 872H315L379 728H315ZM17 0L164 667H281L134 0H17Z"  />
<glyph unicode="&#xCF;" horiz-adv-x="259" d="M412 786Q412 773 407 761T392 740T371 726T346 721Q323 721 309 735T294 773Q294 786 299 797T314 818T335 832T360 838Q382 838 397 823T412 786ZM203 786Q203 773 198 761T183 740T162 726T137 721Q114 721 100 735T85 773Q85 786 90 797T105 818T126 832T151 838Q173 838 188 823T203 786ZM17 0L164 667H281L134 0H17Z"  />
<glyph unicode="&#xD0;" horiz-adv-x="736" d="M43 0L106 287H19L40 381H127L190 667H433Q489 667 540 646T631 588T693 498T717 382Q717 315 693 247T618 124T485 35T290 0H43ZM314 103Q379 103 431 125T520 184T576 271T596 374Q596 415 582 449T544 509T486 549T412 564H285L244 381H402L381 287H223L183 103H314Z"  />
<glyph unicode="&#xD1;" horiz-adv-x="720" d="M536 726Q509 726 494 738T468 765T446 792T417 804Q400 804 387 787T365 732H306Q319 794 346 830T424 866Q451 866 466 854T492 827T515 800T544 788Q561 788 574 805T597 860H655Q642 798 615 762T536 726ZM482 0L241 483L134 0H17L164 667H284L521 199L625 667H742L595 0H482Z"  />
<glyph unicode="&#xD2;" horiz-adv-x="765" d="M493 728L360 872H460L568 728H493ZM371 -12Q304 -12 246 8T144 67T76 160T51 284Q51 367 80 439T162 564T283 647T434 678Q501 678 559 658T660 600T728 507T753 383Q753 300 724 228T643 103T522 19T371 -12ZM377 92Q429 92 475 113T555 173T610 263T630 375Q630 422 615 459T572 521T507 560T426 574Q374 574 328 553T248 493T194 403T174 291Q174 244 189 207T232 145T297 106T377 92Z"  />
<glyph unicode="&#xD3;" horiz-adv-x="765" d="M491 728H414L586 872H688L491 728ZM371 -12Q304 -12 246 8T144 67T76 160T51 284Q51 367 80 439T162 564T283 647T434 678Q501 678 559 658T660 600T728 507T753 383Q753 300 724 228T643 103T522 19T371 -12ZM377 92Q429 92 475 113T555 173T610 263T630 375Q630 422 615 459T572 521T507 560T426 574Q374 574 328 553T248 493T194 403T174 291Q174 244 189 207T232 145T297 106T377 92Z"  />
<glyph unicode="&#xD4;" horiz-adv-x="765" d="M571 728L514 825L419 728H350L475 872H571L635 728H571ZM371 -12Q304 -12 246 8T144 67T76 160T51 284Q51 367 80 439T162 564T283 647T434 678Q501 678 559 658T660 600T728 507T753 383Q753 300 724 228T643 103T522 19T371 -12ZM377 92Q429 92 475 113T555 173T610 263T630 375Q630 422 615 459T572 521T507 560T426 574Q374 574 328 553T248 493T194 403T174 291Q174 244 189 207T232 145T297 106T377 92Z"  />
<glyph unicode="&#xD5;" horiz-adv-x="765" d="M561 726Q534 726 519 738T493 765T471 792T442 804Q425 804 412 787T390 732H331Q344 794 371 830T449 866Q476 866 491 854T517 827T540 800T569 788Q586 788 599 805T622 860H680Q667 798 640 762T561 726ZM371 -12Q304 -12 246 8T144 67T76 160T51 284Q51 367 80 439T162 564T283 647T434 678Q501 678 559 658T660 600T728 507T753 383Q753 300 724 228T643 103T522 19T371 -12ZM377 92Q429 92 475 113T555 173T610 263T630 375Q630 422 615 459T572 521T507 560T426 574Q374 574 328 553T248 493T194 403T174 291Q174 244 189 207T232 145T297 106T377 92Z"  />
<glyph unicode="&#xD6;" horiz-adv-x="765" d="M666 787Q666 774 661 762T646 741T625 727T600 722Q577 722 563 736T548 774Q548 787 553 798T568 819T589 833T614 839Q636 839 651 824T666 787ZM457 787Q457 774 452 762T437 741T416 727T391 722Q368 722 354 736T339 774Q339 787 344 798T359 819T380 833T405 839Q427 839 442 824T457 787ZM371 -12Q304 -12 246 8T144 67T76 160T51 284Q51 367 80 439T162 564T283 647T434 678Q501 678 559 658T660 600T728 507T753 383Q753 300 724 228T643 103T522 19T371 -12ZM377 92Q429 92 475 113T555 173T610 263T630 375Q630 422 615 459T572 521T507 560T426 574Q374 574 328 553T248 493T194 403T174 291Q174 244 189 207T232 145T297 106T377 92Z"  />
<glyph unicode="&#xD7;" horiz-adv-x="502" d="M265 286L87 140L44 192L224 339L113 481L167 524L277 382L456 528L497 477L319 330L428 188L375 144L265 286Z"  />
<glyph unicode="&#xD8;" horiz-adv-x="765" d="M371 -12Q313 -12 262 3T169 47L125 0H38L122 89Q88 126 70 175T51 284Q51 367 80 439T162 564T283 647T434 678Q489 678 538 664T627 624L668 667H755L676 584Q712 546 732 496T753 383Q753 300 724 228T643 103T522 19T371 -12ZM377 92Q429 92 475 113T555 173T610 263T630 375Q630 412 621 442T594 496L249 131Q275 111 307 102T377 92ZM174 291Q174 225 205 177L548 540Q495 574 426 574Q374 574 328 553T248 493T194 403T174 291Z"  />
<glyph unicode="&#xD9;" horiz-adv-x="720" d="M469 728L336 872H436L544 728H469ZM348 -12Q280 -12 229 4T142 51T88 123T70 216Q70 228 71 242T75 264L164 667H283L194 266Q193 261 192 251T190 230Q190 201 200 176T231 132T280 102T348 91Q431 91 474 138T535 266L623 667H742L653 264Q639 203 617 152T558 65T470 8T348 -12Z"  />
<glyph unicode="&#xDA;" horiz-adv-x="720" d="M468 728H391L563 872H665L468 728ZM348 -12Q280 -12 229 4T142 51T88 123T70 216Q70 228 71 242T75 264L164 667H283L194 266Q193 261 192 251T190 230Q190 201 200 176T231 132T280 102T348 91Q431 91 474 138T535 266L623 667H742L653 264Q639 203 617 152T558 65T470 8T348 -12Z"  />
<glyph unicode="&#xDB;" horiz-adv-x="720" d="M551 728L494 825L399 728H330L455 872H551L615 728H551ZM348 -12Q280 -12 229 4T142 51T88 123T70 216Q70 228 71 242T75 264L164 667H283L194 266Q193 261 192 251T190 230Q190 201 200 176T231 132T280 102T348 91Q431 91 474 138T535 266L623 667H742L653 264Q639 203 617 152T558 65T470 8T348 -12Z"  />
<glyph unicode="&#xDC;" horiz-adv-x="720" d="M644 787Q644 774 639 762T624 741T603 727T578 722Q555 722 541 736T526 774Q526 787 531 798T546 819T567 833T592 839Q614 839 629 824T644 787ZM435 787Q435 774 430 762T415 741T394 727T369 722Q346 722 332 736T317 774Q317 787 322 798T337 819T358 833T383 839Q405 839 420 824T435 787ZM348 -12Q280 -12 229 4T142 51T88 123T70 216Q70 228 71 242T75 264L164 667H283L194 266Q193 261 192 251T190 230Q190 201 200 176T231 132T280 102T348 91Q431 91 474 138T535 266L623 667H742L653 264Q639 203 617 152T558 65T470 8T348 -12Z"  />
<glyph unicode="&#xDD;" horiz-adv-x="637" d="M429 728H352L524 872H626L429 728ZM207 0L268 277L95 667H222L342 382L588 667H729L385 277L324 0H207Z"  />
<glyph unicode="&#xDE;" horiz-adv-x="609" d="M17 0L164 667H281L257 555H425Q464 555 497 541T554 502T592 445T606 375Q606 335 592 293T545 216T462 159T339 137H164L134 0H17ZM346 240Q380 240 406 250T449 278T475 317T484 364Q484 402 457 427T389 452H234L187 240H346Z"  />
<glyph unicode="&#xDF;" horiz-adv-x="1022" d="M246 -12Q167 -12 101 12T-6 85L63 165Q91 129 141 107T252 84Q280 84 299 90T330 107T347 131T352 159Q352 181 332 195T280 222T212 247T145 278T93 324T72 393Q72 426 88 456T132 510T201 548T288 562Q360 562 419 536T513 470L444 395Q432 410 414 423T373 445T328 460T282 466Q240 466 214 447T187 398Q187 377 207 364T259 339T327 315T394 283T446 236T467 163Q467 131 454 100T413 43T345 3T246 -12ZM757 -12Q678 -12 612 12T505 85L574 165Q602 129 652 107T763 84Q791 84 810 90T841 107T858 131T863 159Q863 181 843 195T791 222T723 247T656 278T604 324T583 393Q583 426 599 456T643 510T712 548T799 562Q871 562 930 536T1024 470L955 395Q943 410 925 423T884 445T839 460T793 466Q751 466 725 447T698 398Q698 377 718 364T770 339T838 315T905 283T957 236T978 163Q978 131 965 100T924 43T856 3T757 -12Z"  />
<glyph unicode="&#xE0;" horiz-adv-x="586" d="M426 550L532 0H412L393 104H135L71 0H-54L295 550H426ZM338 439L188 199H381L338 439ZM374 606L241 750H341L449 606H374Z"  />
<glyph unicode="&#xE1;" horiz-adv-x="586" d="M426 550L532 0H412L393 104H135L71 0H-54L295 550H426ZM338 439L188 199H381L338 439ZM375 606H298L470 750H572L375 606Z"  />
<glyph unicode="&#xE2;" horiz-adv-x="586" d="M426 550L532 0H412L393 104H135L71 0H-54L295 550H426ZM338 439L188 199H381L338 439ZM453 606L396 703L301 606H232L357 750H453L517 606H453Z"  />
<glyph unicode="&#xE3;" horiz-adv-x="586" d="M426 550L532 0H412L393 104H135L71 0H-54L295 550H426ZM338 439L188 199H381L338 439ZM445 604Q418 604 403 616T377 643T355 670T326 682Q309 682 296 665T274 610H215Q228 672 255 708T333 744Q360 744 375 732T401 705T424 678T453 666Q470 666 483 683T506 738H564Q551 676 524 640T445 604Z"  />
<glyph unicode="&#xE4;" horiz-adv-x="586" d="M426 550L532 0H412L393 104H135L71 0H-54L295 550H426ZM338 439L188 199H381L338 439ZM551 675Q551 662 546 650T531 629T510 615T485 610Q462 610 448 624T433 662Q433 675 438 686T453 707T474 721T499 727Q521 727 536 712T551 675ZM342 675Q342 662 337 650T322 629T301 615T276 610Q253 610 239 624T224 662Q224 675 229 686T244 707T265 721T290 727Q312 727 327 712T342 675Z"  />
<glyph unicode="&#xE5;" horiz-adv-x="586" d="M426 550L532 0H412L393 104H135L71 0H-54L295 550H426ZM338 439L188 199H381L338 439ZM385 600Q343 600 318 625T292 693Q292 716 301 736T325 772T361 796T404 805Q446 805 471 780T497 712Q497 689 488 669T464 634T429 609T385 600ZM389 651Q412 651 429 667T446 707Q446 728 434 741T400 754Q377 754 360 738T343 698Q343 678 356 665T389 651Z"  />
<glyph unicode="&#xE6;" horiz-adv-x="835" d="M334 0L356 104H157L71 0H-55L413 550H856L835 455H543L515 328H801L780 233H494L464 95H756L735 0H334ZM430 439L230 199H377L430 439Z"  />
<glyph unicode="&#xE7;" horiz-adv-x="584" d="M254 -194Q216 -194 186 -183T139 -154L170 -111Q187 -128 209 -137T255 -146Q281 -146 295 -135T309 -106Q309 -95 301 -88T277 -80Q257 -80 245 -95L209 -72L248 -6Q200 3 162 24T96 78T54 150T39 239Q39 305 64 363T134 466T239 536T367 562Q450 562 510 523T597 421L499 384Q482 421 445 443T363 466Q321 466 283 449T216 402T169 332T151 246Q151 209 163 179T198 128T252 96T320 84Q363 84 399 102T464 155L545 104Q505 54 448 21T315 -12H299L274 -53Q288 -42 306 -42Q331 -42 347 -58T364 -103Q364 -145 333 -169T254 -194Z"  />
<glyph unicode="&#xE8;" horiz-adv-x="515" d="M14 0L135 550H536L515 455H224L196 328H482L461 233H175L144 95H436L415 0H14ZM351 606L218 750H318L426 606H351Z"  />
<glyph unicode="&#xE9;" horiz-adv-x="515" d="M14 0L135 550H536L515 455H224L196 328H482L461 233H175L144 95H436L415 0H14ZM352 606H275L447 750H549L352 606Z"  />
<glyph unicode="&#xEA;" horiz-adv-x="515" d="M14 0L135 550H536L515 455H224L196 328H482L461 233H175L144 95H436L415 0H14ZM431 606L374 703L279 606H210L335 750H431L495 606H431Z"  />
<glyph unicode="&#xEB;" horiz-adv-x="515" d="M14 0L135 550H536L515 455H224L196 328H482L461 233H175L144 95H436L415 0H14ZM526 675Q526 662 521 650T506 629T485 615T460 610Q437 610 423 624T408 662Q408 675 413 686T428 707T449 721T474 727Q496 727 511 712T526 675ZM317 675Q317 662 312 650T297 629T276 615T251 610Q228 610 214 624T199 662Q199 675 204 686T219 707T240 721T265 727Q287 727 302 712T317 675Z"  />
<glyph unicode="&#xEC;" horiz-adv-x="242" d="M14 0L135 550H245L124 0H14ZM201 606L68 750H168L276 606H201Z"  />
<glyph unicode="&#xED;" horiz-adv-x="242" d="M14 0L135 550H245L124 0H14ZM202 606H125L297 750H399L202 606Z"  />
<glyph unicode="&#xEE;" horiz-adv-x="242" d="M14 0L135 550H245L124 0H14ZM280 606L223 703L128 606H59L184 750H280L344 606H280Z"  />
<glyph unicode="&#xEF;" horiz-adv-x="242" d="M14 0L135 550H245L124 0H14ZM379 675Q379 662 374 650T359 629T338 615T313 610Q290 610 276 624T261 662Q261 675 266 686T281 707T302 721T327 727Q349 727 364 712T379 675ZM170 675Q170 662 165 650T150 629T129 615T104 610Q81 610 67 624T52 662Q52 675 57 686T72 707T93 721T118 727Q140 727 155 712T170 675Z"  />
<glyph unicode="&#xF0;" horiz-adv-x="631" d="M13 0L66 240H8L25 317H83L134 550H324Q382 550 431 533T517 485T575 411T596 314Q596 261 577 205T515 104T406 29T244 0H13ZM265 95Q320 95 361 114T429 163T469 230T483 306Q483 373 438 414T311 455H223L193 317H313L296 240H176L144 95H265Z"  />
<glyph unicode="&#xF1;" horiz-adv-x="642" d="M409 0L210 393L123 0H14L135 550H252L447 168L532 550H641L520 0H409ZM471 604Q444 604 429 616T403 643T381 670T352 682Q335 682 322 665T300 610H241Q254 672 281 708T359 744Q386 744 401 732T427 705T450 678T479 666Q496 666 509 683T532 738H590Q577 676 550 640T471 604Z"  />
<glyph unicode="&#xF2;" horiz-adv-x="658" d="M312 -12Q250 -12 200 6T114 58T59 138T39 240Q39 304 63 362T130 465T231 535T359 562Q421 562 471 544T557 492T612 412T632 310Q632 246 608 188T541 85T440 15T312 -12ZM314 84Q360 84 398 102T463 151T505 221T520 303Q520 337 509 367T477 419T426 453T356 466Q310 466 273 448T208 399T166 329T151 247Q151 213 162 183T194 131T245 97T314 84ZM409 606L276 750H376L484 606H409Z"  />
<glyph unicode="&#xF3;" horiz-adv-x="658" d="M312 -12Q250 -12 200 6T114 58T59 138T39 240Q39 304 63 362T130 465T231 535T359 562Q421 562 471 544T557 492T612 412T632 310Q632 246 608 188T541 85T440 15T312 -12ZM314 84Q360 84 398 102T463 151T505 221T520 303Q520 337 509 367T477 419T426 453T356 466Q310 466 273 448T208 399T166 329T151 247Q151 213 162 183T194 131T245 97T314 84ZM411 606H334L506 750H608L411 606Z"  />
<glyph unicode="&#xF4;" horiz-adv-x="658" d="M312 -12Q250 -12 200 6T114 58T59 138T39 240Q39 304 63 362T130 465T231 535T359 562Q421 562 471 544T557 492T612 412T632 310Q632 246 608 188T541 85T440 15T312 -12ZM314 84Q360 84 398 102T463 151T505 221T520 303Q520 337 509 367T477 419T426 453T356 466Q310 466 273 448T208 399T166 329T151 247Q151 213 162 183T194 131T245 97T314 84ZM490 606L433 703L338 606H269L394 750H490L554 606H490Z"  />
<glyph unicode="&#xF5;" horiz-adv-x="658" d="M312 -12Q250 -12 200 6T114 58T59 138T39 240Q39 304 63 362T130 465T231 535T359 562Q421 562 471 544T557 492T612 412T632 310Q632 246 608 188T541 85T440 15T312 -12ZM314 84Q360 84 398 102T463 151T505 221T520 303Q520 337 509 367T477 419T426 453T356 466Q310 466 273 448T208 399T166 329T151 247Q151 213 162 183T194 131T245 97T314 84ZM483 604Q456 604 441 616T415 643T393 670T364 682Q347 682 334 665T312 610H253Q266 672 293 708T371 744Q398 744 413 732T439 705T462 678T491 666Q508 666 521 683T544 738H602Q589 676 562 640T483 604Z"  />
<glyph unicode="&#xF6;" horiz-adv-x="658" d="M312 -12Q250 -12 200 6T114 58T59 138T39 240Q39 304 63 362T130 465T231 535T359 562Q421 562 471 544T557 492T612 412T632 310Q632 246 608 188T541 85T440 15T312 -12ZM314 84Q360 84 398 102T463 151T505 221T520 303Q520 337 509 367T477 419T426 453T356 466Q310 466 273 448T208 399T166 329T151 247Q151 213 162 183T194 131T245 97T314 84ZM588 675Q588 662 583 650T568 629T547 615T522 610Q499 610 485 624T470 662Q470 675 475 686T490 707T511 721T536 727Q558 727 573 712T588 675ZM379 675Q379 662 374 650T359 629T338 615T313 610Q290 610 276 624T261 662Q261 675 266 686T281 707T302 721T327 727Q349 727 364 712T379 675Z"  />
<glyph unicode="&#xF7;" horiz-adv-x="511" d="M42 304L57 371H510L495 304H42ZM230 98Q209 98 195 112T180 148Q180 172 197 189T240 206Q260 206 274 192T289 156Q289 132 272 115T230 98ZM311 466Q291 466 277 480T262 516Q262 540 279 557T321 574Q342 574 356 560T371 524Q371 500 353 483T311 466Z"  />
<glyph unicode="&#xF8;" horiz-adv-x="658" d="M312 -12Q261 -12 219 0T143 35L108 0H17L94 78Q68 110 54 151T39 240Q39 304 63 362T130 465T231 535T359 562Q409 562 450 550T526 516L559 550H650L574 473Q602 441 617 400T632 310Q632 246 608 188T541 85T440 15T312 -12ZM314 84Q360 84 398 102T463 151T505 221T520 303Q520 355 496 394L217 111Q258 84 314 84ZM151 247Q151 199 173 158L451 440Q431 452 408 459T356 466Q310 466 273 448T208 399T166 329T151 247Z"  />
<glyph unicode="&#xF9;" horiz-adv-x="636" d="M306 -12Q245 -12 198 1T120 39T72 97T56 172Q56 191 61 216L135 550H245L173 225Q170 208 170 193Q170 139 206 112T304 84Q367 84 403 120T453 225L525 550H635L561 216Q549 162 530 120T480 48T407 4T306 -12ZM398 606L265 750H365L473 606H398Z"  />
<glyph unicode="&#xFA;" horiz-adv-x="636" d="M306 -12Q245 -12 198 1T120 39T72 97T56 172Q56 191 61 216L135 550H245L173 225Q170 208 170 193Q170 139 206 112T304 84Q367 84 403 120T453 225L525 550H635L561 216Q549 162 530 120T480 48T407 4T306 -12ZM400 606H323L495 750H597L400 606Z"  />
<glyph unicode="&#xFB;" horiz-adv-x="636" d="M306 -12Q245 -12 198 1T120 39T72 97T56 172Q56 191 61 216L135 550H245L173 225Q170 208 170 193Q170 139 206 112T304 84Q367 84 403 120T453 225L525 550H635L561 216Q549 162 530 120T480 48T407 4T306 -12ZM477 606L420 703L325 606H256L381 750H477L541 606H477Z"  />
<glyph unicode="&#xFC;" horiz-adv-x="636" d="M306 -12Q245 -12 198 1T120 39T72 97T56 172Q56 191 61 216L135 550H245L173 225Q170 208 170 193Q170 139 206 112T304 84Q367 84 403 120T453 225L525 550H635L561 216Q549 162 530 120T480 48T407 4T306 -12ZM576 675Q576 662 571 650T556 629T535 615T510 610Q487 610 473 624T458 662Q458 675 463 686T478 707T499 721T524 727Q546 727 561 712T576 675ZM367 675Q367 662 362 650T347 629T326 615T301 610Q278 610 264 624T249 662Q249 675 254 686T269 707T290 721T315 727Q337 727 352 712T367 675Z"  />
<glyph unicode="&#xFD;" horiz-adv-x="557" d="M172 0L222 229L67 550H190L296 322L499 550H624L330 229L280 0H172ZM361 606H284L456 750H558L361 606Z"  />
<glyph unicode="&#xFE;" horiz-adv-x="541" d="M14 0L135 550H245L226 464H346Q386 464 420 454T478 423T516 375T530 311Q530 274 516 239T476 175T410 130T322 113H148L124 0H14ZM318 208Q341 208 359 215T390 236T410 266T417 303Q417 335 394 352T333 369H205L169 208H308H318Z"  />
<glyph unicode="&#xFF;" horiz-adv-x="557" d="M172 0L222 229L67 550H190L296 322L499 550H624L330 229L280 0H172ZM538 675Q538 662 533 650T518 629T497 615T472 610Q449 610 435 624T420 662Q420 675 425 686T440 707T461 721T486 727Q508 727 523 712T538 675ZM329 675Q329 662 324 650T309 629T288 615T263 610Q240 610 226 624T211 662Q211 675 216 686T231 707T252 721T277 727Q299 727 314 712T329 675Z"  />
<glyph unicode="&#x152;" horiz-adv-x="1093" d="M535 0L553 87Q516 42 461 15T331 -12Q271 -12 220 10T132 71T73 164T51 284Q51 372 81 444T163 568T283 648T428 677Q502 677 562 647T655 546L682 667H1139L1116 564H776L738 392H1071L1048 289H715L674 103H1014L992 0H535ZM628 422Q612 495 560 534T433 573Q378 573 331 551T249 491T194 402T174 291Q174 246 188 209T229 146T291 106T370 92Q434 92 490 123T581 212L628 422Z"  />
<glyph unicode="&#x153;" horiz-adv-x="940" d="M438 0L453 71Q424 29 379 9T284 -12Q229 -12 184 6T107 58T57 138T39 240Q39 304 63 362T129 464T231 535T360 562Q388 562 415 556T466 538T509 506T540 460L559 550H961L940 455H648L620 328H906L885 233H599L569 95H861L840 0H438ZM515 350Q507 381 492 403T455 439T408 459T357 466Q313 466 275 449T210 401T167 332T151 247Q151 210 163 180T197 129T248 96T314 84Q368 84 411 112T480 193L515 350Z"  />
<glyph unicode="&#x160;" horiz-adv-x="594" d="M350 728L286 872H351L407 776L503 872H571L446 728H350ZM295 -12Q248 -12 204 -3T123 22T56 61T7 111L81 196Q116 148 175 120T304 92Q336 92 359 101T396 124T418 155T425 188Q425 215 401 233T340 267T261 298T182 336T122 390T97 470Q97 510 114 547T165 614T244 660T348 678Q426 678 493 650T603 571L528 487Q492 532 438 553T331 575Q307 575 287 568T253 550T230 523T221 490Q221 465 245 448T306 415T385 384T464 346T524 291T549 210Q549 166 532 126T483 56T403 7T295 -12Z"  />
<glyph unicode="&#x161;" horiz-adv-x="511" d="M246 -12Q167 -12 101 12T-6 85L63 165Q91 129 141 107T252 84Q280 84 299 90T330 107T347 131T352 159Q352 181 332 195T280 222T212 247T145 278T93 324T72 393Q72 426 88 456T132 510T201 548T288 562Q360 562 419 536T513 470L444 395Q432 410 414 423T373 445T328 460T282 466Q240 466 214 447T187 398Q187 377 207 364T259 339T327 315T394 283T446 236T467 163Q467 131 454 100T413 43T345 3T246 -12ZM292 606L228 750H293L349 654L445 750H513L388 606H292Z"  />
<glyph unicode="&#x178;" horiz-adv-x="637" d="M604 787Q604 774 599 762T584 741T563 727T538 722Q515 722 501 736T486 774Q486 787 491 798T506 819T527 833T552 839Q574 839 589 824T604 787ZM395 787Q395 774 390 762T375 741T354 727T329 722Q306 722 292 736T277 774Q277 787 282 798T297 819T318 833T343 839Q365 839 380 824T395 787ZM207 0L268 277L95 667H222L342 382L588 667H729L385 277L324 0H207Z"  />
<glyph unicode="&#x17D;" horiz-adv-x="589" d="M355 728L291 872H356L412 776L508 872H576L451 728H355ZM-10 0L11 95L449 564H115L138 667H631L610 573L172 103H513L491 0H-10Z"  />
<glyph unicode="&#x17E;" horiz-adv-x="521" d="M-17 0L1 80L371 454H84L105 550H544L526 470L156 96H450L429 0H-17ZM291 606L227 750H292L348 654L444 750H512L387 606H291Z"  />
<glyph unicode="&#x192;" horiz-adv-x="385" d="M-37 -119L36 208H-10V284H53L79 400Q96 478 137 519T244 561Q270 561 295 553T341 525L301 442Q288 458 262 458Q233 458 218 437T195 383L172 284H266V208H156L82 -119H-37Z"  />
<glyph unicode="&#x2C6;" horiz-adv-x="285" d="M290 556L233 653L138 556H69L194 700H290L354 556H290Z"  />
<glyph unicode="&#x2DC;" horiz-adv-x="321" d="M300 554Q273 554 258 566T232 593T210 620T181 632Q164 632 151 615T129 560H70Q83 622 110 658T188 694Q215 694 230 682T256 655T279 628T308 616Q325 616 338 633T361 688H419Q406 626 379 590T300 554Z"  />
<glyph unicode="&#x3BC;" horiz-adv-x="567" d="M-27 -184L121 483H226L155 161Q150 116 171 98T234 80Q274 80 311 100T372 144L447 483H552L445 0H340L354 64Q322 35 273 12T167 -12Q139 -12 117 -6L78 -184H-27Z"  />
<glyph unicode="&#x2013;" horiz-adv-x="593" d="M20 197L39 287H572L553 197H20Z"  />
<glyph unicode="&#x2014;" horiz-adv-x="833" d="M20 197L39 287H812L793 197H20Z"  />
<glyph unicode="&#x2018;" horiz-adv-x="245" d="M99 494Q99 520 109 547T138 598T180 643T232 678L271 637Q244 624 217 602T179 553H189Q210 553 226 539T242 497Q242 482 236 468T219 444T195 428T166 422Q139 422 119 440T99 494Z"  />
<glyph unicode="&#x2019;" horiz-adv-x="245" d="M276 606Q276 579 266 552T237 501T195 456T143 422L104 463Q131 476 158 498T196 547Q194 546 191 546T186 546Q165 546 149 561T133 603Q133 618 139 631T156 655T180 671T209 677Q236 677 256 659T276 606Z"  />
<glyph unicode="&#x201A;" horiz-adv-x="245" d="M155 58Q155 31 145 4T116 -47T74 -92T21 -127L-18 -86Q9 -73 36 -51T74 -2H65Q43 -2 27 13T11 55Q11 70 17 83T35 107T59 123T88 129Q114 129 134 111T155 58Z"  />
<glyph unicode="&#x201C;" horiz-adv-x="430" d="M287 494Q287 520 297 547T326 598T368 643T421 678L460 637Q433 624 406 602T368 553H377Q399 553 415 539T431 497Q431 482 425 468T407 444T383 428T354 422Q328 422 308 440T287 494ZM103 494Q103 520 113 547T142 598T184 643T236 678L275 637Q248 624 221 602T183 553H193Q214 553 230 539T246 497Q246 482 240 468T223 444T199 428T170 422Q143 422 123 440T103 494Z"  />
<glyph unicode="&#x201D;" horiz-adv-x="430" d="M276 606Q276 579 266 552T237 501T195 456T143 422L104 463Q131 476 158 498T196 547Q194 546 191 546T186 546Q165 546 149 561T133 603Q133 618 139 631T156 655T180 671T209 677Q236 677 256 659T276 606ZM461 606Q461 579 451 552T422 501T380 456T327 422L288 463Q315 476 342 498T380 547Q378 546 376 546T371 546Q349 546 333 561T317 603Q317 618 323 631T341 655T365 671T394 677Q420 677 440 659T461 606Z"  />
<glyph unicode="&#x201E;" horiz-adv-x="430" d="M155 58Q155 31 145 4T116 -47T74 -92T21 -127L-18 -86Q9 -73 36 -51T74 -2H65Q43 -2 27 13T11 55Q11 70 17 83T35 107T59 123T88 129Q114 129 134 111T155 58ZM339 58Q339 31 329 4T300 -47T258 -92T206 -127L167 -86Q194 -73 221 -51T259 -2H249Q228 -2 212 13T196 55Q196 70 202 83T219 107T243 123T272 129Q299 129 319 111T339 58Z"  />
<glyph unicode="&#x2020;" horiz-adv-x="271" d="M224 530L183 327H124L173 530L83 526L95 580L184 577L202 677H261L235 577L324 580L312 526L224 530Z"  />
<glyph unicode="&#x2021;" horiz-adv-x="271" d="M312 526L224 530L179 328L269 332L257 278L169 281L150 180H91L118 281L28 278L40 332L128 328L173 530L83 526L95 580L183 577L202 677H261L235 577L324 580L312 526Z"  />
<glyph unicode="&#x2022;" horiz-adv-x="358" d="M294 254Q294 228 284 206T256 166T216 139T167 129Q122 129 93 158T64 232Q64 257 74 280T102 319T143 346T192 356Q236 356 265 327T294 254Z"  />
<glyph unicode="&#x2026;" horiz-adv-x="735" d="M75 -11Q49 -11 31 8T12 54Q12 85 34 107T88 129Q115 129 133 110T152 65Q152 33 130 11T75 -11ZM320 -11Q294 -11 276 8T257 54Q257 85 279 107T333 129Q360 129 378 110T397 65Q397 33 375 11T320 -11ZM565 -11Q539 -11 521 8T502 54Q502 85 524 107T578 129Q605 129 623 110T642 65Q642 33 620 11T565 -11Z"  />
<glyph unicode="&#x2030;" horiz-adv-x="894" d="M335 442Q335 412 324 384T293 335T245 300T184 287Q130 287 96 318T62 406Q62 436 73 464T104 514T151 549T211 562Q266 562 300 531T335 442ZM88 0H25L528 550H593L88 0ZM269 440Q269 468 254 487T209 506Q192 506 178 498T152 477T135 446T128 409Q128 381 143 363T188 344Q205 344 219 352T245 373T262 403T269 440ZM556 145Q556 115 545 87T513 37T466 2T405 -11Q350 -11 316 20T282 109Q282 139 293 167T324 217T371 252T432 265Q486 265 521 233T556 145ZM489 142Q489 170 474 189T429 208Q412 208 398 200T372 179T355 148T349 111Q349 83 364 65T408 47Q425 47 439 55T465 76T482 106T489 142ZM845 145Q845 115 834 87T803 37T755 2T694 -11Q640 -11 606 20T572 109Q572 139 583 167T614 217T661 252T721 265Q776 265 810 233T845 145ZM779 142Q779 170 764 189T719 208Q702 208 688 200T662 179T645 148T638 111Q638 83 653 65T698 47Q715 47 729 55T755 76T772 106T779 142Z"  />
<glyph unicode="&#x2039;" horiz-adv-x="320" d="M149 63L29 243L229 420H333L129 238L245 63H149Z"  />
<glyph unicode="&#x203A;" horiz-adv-x="320" d="M173 420L293 240L93 63H-11L193 245L77 420H173Z"  />
<glyph unicode="&#x20AC;" horiz-adv-x="611" d="M185 301Q182 288 180 276T178 249H405L393 195H185Q200 143 243 114T347 84Q390 84 426 102T491 155L572 104Q532 54 475 21T342 -12Q286 -12 240 3T158 45T99 110T69 195H15L26 249H66Q67 262 68 275T72 301H38L50 354H88Q106 399 136 437T206 503T293 546T394 562Q477 562 537 523T624 421L526 384Q509 421 472 443T390 466Q333 466 284 436T206 354H428L416 301H185Z"  />
<glyph unicode="&#x2122;" horiz-adv-x="454" d="M436 447L476 629L361 447H353L318 629L278 447H250L298 667H341L370 507L469 667H512L464 447H436ZM195 641L152 447H124L167 641H105L110 667H262L257 641H195Z"  />


</font>
</defs>
</svg>
